<?xml version="1.0" encoding="UTF-8"?>
<svg id="Capa_1" data-name="Capa 1" xmlns="http://www.w3.org/2000/svg" viewBox="0 0 512 512">
  <defs>
    <style>
      .cls-1 {
        fill: #e3b04b;
      }

      .cls-2 {
        fill: #2b2b28;
        stroke: #e3b04b;
        stroke-miterlimit: 10;
        stroke-width: 3px;
      }
    </style>
  </defs>
  <path class="cls-2" d="m98.7,88.37l43.81-26.09c-75.16-5.5-119.5-1.76-133.03,11.23-2.14-3.74-1.95-8.47.53-14.2,5.34-11.01,19.58-20.69,42.74-29.06,39.53-13.87,94.56-17.83,165.09-11.89,133.21,11.45,227.6,12.99,283.16,4.62-23.87,14.75-50.76,26.75-80.67,36v364.95c-3.56,28.4-11.94,47.45-25.11,57.14-11.4,8.37-32.59,13.43-63.58,15.19H55.96c21.72-7.04,35.97-15.52,42.74-25.43V208.59c-10.33-12.99-25.83-24.77-46.48-35.34,20.65-10.35,36.15-22.01,46.48-35.01v-49.87Z"/>
  <g>
    <path class="cls-1" d="m267.09,258.58c5.9,3.6,7.41,5.19,9.79-.88,4.21-10.72,5.77-22.42,10.31-33.17,7.46-17.7,16.13-34.83,35.59-41.02,10.89-3.46,22.48-4.23,33.4-7.6,23.01-7.09,33.68-28.7,35.37-51.41.42-5.69-2.26-14.68-4.41-16.32s-23.54-7.38-31.35-5.88c-7.81,1.49-26.77,1.66-32.23.76-5.46-.9-9.06-5.61-12.38-6.05-3.32-.44-10.89,1.76-11.8,6.03-.91,4.28.29,5.45,3.4,8.74,3.11,3.29,12.17,8.9,12.73,18.61.56,9.71-.93,28.46-4.41,36.78-3.48,8.33-16.12,26.93-21.03,34.56-3.02,3.96-4.45,8.88-6.63,13.21-2.54,5.07-6.35,9.54-9.75,14.13-5.5,7.42-11.98,15.45-21.13,16.72,4.05,5.06,9,9.4,14.54,12.78Zm117.24-147.55c1.22,3.37,2.09,6.87,2.59,10.42-.03-.45-.04-.89-.07-1.34l.45,4.8c-.09-1.16-.22-2.32-.38-3.47.34,5.13.53,10.27.52,15.41-.2-4.04-.46-8.1-1.4-12.04s-2.58-7.77-5.25-10.81c1.41-.67,2.63-1.71,3.54-2.98Zm-32.76-3.71c9.7-1.75,19.68.77,25.91,7.35,17.3,18.3-.13,50.86-23.96,51.42-16.12.38-26.14-6.88-28.79-12.31-2.66-5.43-1.61-20.85,1.66-26.33,3.27-5.48,15.48-18.39,25.19-20.14Zm-46.69,1.37c-1.21-2.36,3.77-2.88,3.77-2.88,0,0,4.53,2.8,8.35,5.85,3.8,3.03,14.11-.09,14.22-.13-4.71,1.43-7.01,9.23-8.41,13.25,0,.02-.01.03-.02.05-2.4,6.95-3.46,14.28-4.5,21.54.28-4.23.56-8.45.84-12.68.34-5.06.52-10.81-2.7-15.09-2.92-3.88-9.35-5.61-11.55-9.92Zm13.3,46.82c.04,9.85,18.65,16.36,26.08,16.87-12.22,1.66-24.13,5.61-34.93,11.56,4.88-8.07,8.89-18.94,8.85-28.43Z"/>
    <path class="cls-1" d="m153.27,107.51c-2.04,11.74,0,23.48,2.55,30.62,2.55,7.15,3.06,10.21,15.31,11.74,5.01.63,9.77,1.94,14.73,2.29,3.19.89,13.64,4.34,17.94,12.52,5.1,9.7,6.64,19.39,6.12,26.54-.51,7.15-.51,18.37,3.06,23.48,3.57,5.1,9.7,7.15,13.78,24.5,4.08,17.35,7.15,41.34,12.76,57.16,5.61,15.82,13.78,31.13,13.78,31.13.54,1.01,22.01-5.68,23.71-6.75,1.14-.72,1.97-1.61,2.55-2.63,3.61-6.32.33-15.33-1.73-21.62-2.43-7.39-3.46-16.29-8.2-22.6-6.12-8.17-19.39-12.76-25.52-19.39-6.12-6.64-17.86-27.05-21.95-36.75-4.08-9.7-9.7-39.3-11.74-52.06-2.04-12.76-.51-22.97-.51-22.97,0,0-3.06,8.17-10.21,9.7-5.52,1.18-11.33.24-13.69-.26,7.1.47,14.62-1.06,23.9-9.44,0,0,2.42-5.85,4.47-11.34-.58,2.53-1.12,5.49-1.43,8.85-.37,4.02-.75,8.55-.72,13.56,0,5,.35,10.4.98,16.06.63,5.67,1.33,11.57,2.45,17.74,1.13,6.14,2.51,12.45,4.42,18.73,1.89,6.28,4.09,12.59,6.79,18.74,1.39,3.06,2.86,6.07,4.59,9.07,1.7,2.9,3.52,5.64,5.43,8.36,3.81,5.41,8.18,10.41,13.2,14.51,2.5,2.05,5.26,3.81,7.9,5.2,2.64,1.44,5.15,2.75,7.4,4.22,2.27,1.45,4.18,3.11,5.63,4.96.36.47.61.88.94,1.36l.44.87.22.43.02.04.03.08.09.21c.48,1.11.9,2.28,1.31,3.42,1.58,4.61,2.94,8.92,4.13,12.74,1.18,3.83,2.21,7.16,3.05,9.91,1.7,5.5,2.67,8.65,2.67,8.65,0,0-.14-.81-.4-2.33-.27-1.52-.64-3.75-1.2-6.58-.55-2.83-1.21-6.26-2.07-10.18-.85-3.93-1.82-8.35-3.14-13.15-.35-1.21-.69-2.43-1.13-3.71l-.08-.24-.04-.12c-.02-.06.03.05-.06-.15l-.02-.06-.19-.45-.38-.9c-.34-.64-.73-1.38-1.14-1.99-1.65-2.46-3.91-4.51-6.3-6.23-2.4-1.74-4.97-3.24-7.46-4.77-2.52-1.53-4.86-3.07-7.07-5.01-4.44-3.81-8.31-8.67-11.92-13.83-1.78-2.6-3.54-5.3-5.12-8.07-1.52-2.69-2.92-5.6-4.2-8.54-2.63-5.86-4.84-11.96-6.74-18.04-1.85-6.1-3.51-12.16-4.75-18.11-1.21-5.93-2.26-11.82-3.14-17.34-.86-5.54-1.57-10.77-1.91-15.62-.34-4.84-.36-9.35-.35-13.32.04-3.98.34-7.4.73-10.24.36-2.65.77-4.73,1.1-6.22.05-.21.1-.4.14-.58.02-.11.05-.23.07-.35.26-1.09.44-1.69.44-1.69,0,0-.1.22-.26.62.93-6.32,1.75-23.37,1.28-26.65-.51-3.57-2.04-9.19-8.17-12.76-6.12-3.57-15.31-9.19-20.42-19.39-5.1-10.21-7.15-18.37-14.8-26.03-7.66-7.66-14.8-15.31-16.33-13.27-1.53,2.04-1.53,3.57,4.59,12.25,6.12,8.68,17.86,16.84,18.88,23.99,1.02,7.15-2.04,13.78-6.64,18.37-4.59,4.59-20.42,17.35-22.46,29.09Zm108.71,187.31c5.92,0,10.72,4.8,10.72,10.72s-4.8,10.72-10.72,10.72-10.72-4.8-10.72-10.72,4.8-10.72,10.72-10.72Zm-101.57-150.06c-3.06-3.06-3.57-13.27-3.57-13.27,0,0,.51,3.06,4.08,7.15,3.57,4.08,11.74,8.17,11.74,8.17-1.02,2.04-9.19,1.02-12.25-2.04Zm52.15-28.18c-1.65,15.17-12.52,28.51-30.72,24.61-28.31-6.07-25.59-38.23-5.61-52.06,20.61-14.27,38.54,7.13,36.33,27.46Z"/>
    <path class="cls-1" d="m261.98,311.86c3.49,0,6.32-2.83,6.32-6.32s-2.83-6.32-6.32-6.32-6.32,2.83-6.32,6.32,2.83,6.32,6.32,6.32Z"/>
    <path class="cls-1" d="m297.6,384.79c-3.47-11.11-6.93-22.22-10.4-33.32-2.41-7.73-8.78-19.61-7.89-27.57-5.36,2.81-11.79,6.11-17.89,6.67l-5.56.51s15.82,60.23,32.15,94.42c16.33,34.2,28.07,59.72,28.07,59.72,0,0,4.59,4.59,5.61,1.02-3.47-24.05-6.93-46.4-14.21-69.73-3.3-10.57-6.6-21.14-9.89-31.71Zm-22.86-8.39s2.06,4.64,9.79,23.69c7.73,19.06,25.75,62.33,25.75,62.33-15.97-25.24-35.54-86.02-35.54-86.02Z"/>
    <path class="cls-1" d="m241.49,313.16c-.71-1.76-1.45-3.52-2.19-5.27-2.31,3.46-6.27,9.43-11.22,17.02-3.99,6.12-8.6,13.29-13.45,21.03-2.42,3.87-4.9,7.88-7.36,11.99-2.48,4.05-4.83,8.37-7.09,12.63-2.24,4.31-4.43,8.66-6.54,12.97-2.1,4.31-4.14,8.57-6.09,12.7-3.89,8.27-7.42,16.03-10.43,22.7-6,13.34-9.86,22.29-9.86,22.29,0,0,3.62-9.06,9.26-22.55,2.82-6.75,6.15-14.61,9.82-22.99,1.84-4.19,3.76-8.51,5.75-12.88,2-4.37,4.07-8.79,6.21-13.19,2.2-4.41,4.39-8.73,6.81-12.93,2.36-4.19,4.73-8.29,7.06-12.23,4.65-7.89,9.08-15.19,12.91-21.43,6.1-9.94,10.66-17.17,12.27-19.71-1.18-2.77-2.35-5.53-3.47-8.3,1.99,4.91-10.21,19.26-12.65,23.49-5.92,10.27-11.53,20.71-16.89,31.29-10.55,20.81-20.14,42.09-29.37,63.51-2.25,5.21-22.84,59.68-13.87,59.74,3.77.03,5.3-7.29,6.58-9.9,3.83-7.81,8.61-15.73,13-22.85,9.69-15.74,19.22-31.58,28.58-47.53,9.24-15.74,18.75-31.32,27.8-47.17,4.62-8.09,10.88-14.7,7.73-23.73-1.02-2.92-2.14-5.82-3.31-8.71Z"/>
  </g>
</svg>