<?xml version="1.0" encoding="UTF-8"?>
<svg id="Layer_1" data-name="Layer 1" xmlns="http://www.w3.org/2000/svg" viewBox="0 0 400 400">
  <defs>
    <style>
      .cls-1 {
        fill: #f8f8f8;
      }

      .cls-2 {
        fill: #2b2b28;
        fill-rule: evenodd;
      }
    </style>
  </defs>
  <circle class="cls-1" cx="199.87" cy="200.13" r="199.87"/>
  <g id="WA_Logo" data-name="WA Logo">
    <path class="cls-2" d="m296.01,106.45c-23.94-23.96-55.77-37.16-89.69-37.17-69.89,0-126.76,56.86-126.79,126.74,0,22.34,5.83,44.15,16.92,63.37l-17.99,65.68,67.21-17.63c18.52,10.1,39.37,15.42,60.59,15.43h.05s0,0,0,0c69.88,0,126.76-56.86,126.79-126.75.01-33.87-13.16-65.71-37.1-89.67Zm-89.69,195.02h-.04c-18.91,0-37.46-5.09-53.64-14.68l-3.85-2.28-39.89,10.46,10.65-38.88-2.51-3.99c-10.55-16.77-16.12-36.16-16.11-56.07.02-58.09,47.3-105.34,105.43-105.34,28.15.01,54.61,10.98,74.5,30.9,19.9,19.91,30.85,46.38,30.84,74.53-.02,58.09-47.3,105.35-105.38,105.35Zm57.81-78.9c-3.17-1.59-18.74-9.25-21.65-10.3-2.9-1.06-5.02-1.59-7.13,1.59-2.11,3.17-8.18,10.3-10.03,12.42-1.85,2.11-3.7,2.38-6.86.79-3.17-1.59-13.38-4.93-25.48-15.72-9.42-8.4-15.78-18.77-17.62-21.94-1.85-3.17-.2-4.88,1.39-6.46,1.43-1.42,3.17-3.7,4.75-5.55,1.58-1.85,2.11-3.17,3.17-5.28,1.06-2.11.53-3.96-.26-5.55-.79-1.59-7.13-17.17-9.77-23.52-2.57-6.18-5.18-5.34-7.13-5.44-1.85-.09-3.96-.11-6.07-.11s-5.54.79-8.45,3.96c-2.9,3.17-11.09,10.83-11.09,26.42s11.35,30.65,12.94,32.76c1.58,2.11,22.34,34.1,54.12,47.82,7.56,3.26,13.46,5.21,18.06,6.67,7.59,2.41,14.5,2.07,19.95,1.25,6.09-.91,18.74-7.66,21.38-15.06,2.64-7.4,2.64-13.74,1.85-15.06-.79-1.32-2.9-2.11-6.07-3.7Z"/>
  </g>
</svg>