<?xml version="1.0" encoding="UTF-8"?>
<svg id="Layer_1" data-name="Layer 1" xmlns="http://www.w3.org/2000/svg" viewBox="0 0 32 32">
  <defs>
    <style>
      .cls-1 {
        fill: #2b2b28;
      }

      .cls-2 {
        fill: #e3b04b;
      }
    </style>
  </defs>
  <path class="cls-2" d="m5.83,5.67l2.82-1.68c-4.83-.35-7.68-.11-8.55.72-.14-.24-.13-.54.03-.91.34-.71,1.26-1.33,2.75-1.87,2.54-.89,6.08-1.15,10.61-.76,8.56.74,14.63.84,18.21.3-1.53.95-3.26,1.72-5.19,2.31v23.46c-.23,1.83-.77,3.05-1.61,3.67-.73.54-2.1.86-4.09.98H3.08c1.4-.45,2.31-1,2.75-1.64V13.4c-.66-.84-1.66-1.59-2.99-2.27,1.33-.67,2.32-1.42,2.99-2.25v-3.21Z"/>
  <g>
    <path class="cls-1" d="m16.99,16.54c.33.2.42.29.55-.05.24-.6.32-1.26.58-1.87.42-1,.91-1.96,2-2.31.61-.19,1.27-.24,1.88-.43,1.29-.4,1.9-1.61,1.99-2.89.02-.32-.13-.83-.25-.92s-1.32-.42-1.76-.33c-.44.08-1.51.09-1.81.04s-.51-.32-.7-.34c-.19-.03-.61.1-.66.34-.05.24.02.31.19.49.18.19.68.5.72,1.05.03.55-.05,1.6-.25,2.07s-.91,1.52-1.18,1.94c-.17.22-.25.5-.37.74-.14.29-.36.54-.55.79-.31.42-.67.87-1.19.94.23.28.51.53.82.72Zm6.6-8.3c.07.19.12.39.15.59,0-.03,0-.05,0-.08l.03.27c0-.07-.01-.13-.02-.2.02.29.03.58.03.87-.01-.23-.03-.46-.08-.68s-.14-.44-.3-.61c.08-.04.15-.1.2-.17Zm-1.84-.21c.55-.1,1.11.04,1.46.41.97,1.03,0,2.86-1.35,2.89-.91.02-1.47-.39-1.62-.69s-.09-1.17.09-1.48c.18-.31.87-1.04,1.42-1.13Zm-2.63.08c-.07-.13.21-.16.21-.16,0,0,.25.16.47.33.21.17.79,0,.8,0-.27.08-.39.52-.47.75,0,0,0,0,0,0-.14.39-.19.8-.25,1.21.02-.24.03-.48.05-.71.02-.28.03-.61-.15-.85-.16-.22-.53-.32-.65-.56Zm.75,2.64c0,.55,1.05.92,1.47.95-.69.09-1.36.32-1.97.65.27-.45.5-1.07.5-1.6Z"/>
    <path class="cls-1" d="m10.59,8.04c-.11.66,0,1.32.14,1.72.14.4.17.57.86.66.28.04.55.11.83.13.18.05.77.24,1.01.7.29.55.37,1.09.34,1.49-.03.4-.03,1.03.17,1.32.2.29.55.4.78,1.38.23.98.4,2.33.72,3.22.32.89.78,1.75.78,1.75.03.06,1.24-.32,1.33-.38.06-.04.11-.09.14-.15.2-.36.02-.86-.1-1.22-.14-.42-.19-.92-.46-1.27-.34-.46-1.09-.72-1.44-1.09s-1.01-1.52-1.24-2.07c-.23-.55-.55-2.21-.66-2.93-.11-.72-.03-1.29-.03-1.29,0,0-.17.46-.57.55-.31.07-.64.01-.77-.01.4.03.82-.06,1.34-.53,0,0,.14-.33.25-.64-.03.14-.06.31-.08.5-.02.23-.04.48-.04.76,0,.28.02.59.06.9.04.32.08.65.14,1,.06.35.14.7.25,1.05.11.35.23.71.38,1.05.08.17.16.34.26.51.1.16.2.32.31.47.21.3.46.59.74.82.14.12.3.21.44.29.15.08.29.15.42.24.13.08.24.17.32.28.02.03.03.05.05.08l.02.05v.02s.01,0,.01,0h0s0,.02,0,.02c.03.06.05.13.07.19.09.26.17.5.23.72.07.22.12.4.17.56.1.31.15.49.15.49,0,0,0-.05-.02-.13-.02-.09-.04-.21-.07-.37-.03-.16-.07-.35-.12-.57-.05-.22-.1-.47-.18-.74-.02-.07-.04-.14-.06-.21h0s0-.02,0-.02c0,0,0,0,0,0h0s-.01-.03-.01-.03l-.02-.05s-.04-.08-.06-.11c-.09-.14-.22-.25-.35-.35-.14-.1-.28-.18-.42-.27-.14-.09-.27-.17-.4-.28-.25-.21-.47-.49-.67-.78-.1-.15-.2-.3-.29-.45-.09-.15-.16-.32-.24-.48-.15-.33-.27-.67-.38-1.02-.1-.34-.2-.68-.27-1.02-.07-.33-.13-.67-.18-.98-.05-.31-.09-.61-.11-.88-.02-.27-.02-.53-.02-.75,0-.22.02-.42.04-.58.02-.15.04-.27.06-.35,0-.01,0-.02,0-.03,0,0,0-.01,0-.02.01-.06.02-.1.02-.1,0,0,0,.01-.01.03.05-.36.1-1.32.07-1.5-.03-.2-.11-.52-.46-.72-.34-.2-.86-.52-1.15-1.09s-.4-1.03-.83-1.46c-.43-.43-.83-.86-.92-.75-.09.11-.09.2.26.69.34.49,1.01.95,1.06,1.35.06.4-.11.78-.37,1.03-.26.26-1.15.98-1.26,1.64Zm6.12,10.54c.33,0,.6.27.6.6s-.27.6-.6.6-.6-.27-.6-.6.27-.6.6-.6Zm-5.72-8.44c-.17-.17-.2-.75-.2-.75,0,0,.03.17.23.4.2.23.66.46.66.46-.06.11-.52.06-.69-.11Zm2.93-1.59c-.09.85-.7,1.6-1.73,1.38-1.59-.34-1.44-2.15-.32-2.93,1.16-.8,2.17.4,2.04,1.55Z"/>
    <path class="cls-1" d="m16.71,19.54c.2,0,.36-.16.36-.36s-.16-.36-.36-.36-.36.16-.36.36.16.36.36.36Z"/>
    <path class="cls-1" d="m18.71,23.65c-.2-.63-.39-1.25-.59-1.88-.14-.43-.49-1.1-.44-1.55-.3.16-.66.34-1.01.38l-.31.03s.89,3.39,1.81,5.31c.92,1.92,1.58,3.36,1.58,3.36,0,0,.26.26.32.06-.2-1.35-.39-2.61-.8-3.92-.19-.59-.37-1.19-.56-1.78Zm-1.29-.47s.12.26.55,1.33c.43,1.07,1.45,3.51,1.45,3.51-.9-1.42-2-4.84-2-4.84Z"/>
    <path class="cls-1" d="m15.55,19.62c-.04-.1-.08-.2-.12-.3-.13.19-.35.53-.63.96-.22.34-.48.75-.76,1.18-.14.22-.28.44-.41.67-.14.23-.27.47-.4.71-.13.24-.25.49-.37.73-.12.24-.23.48-.34.71-.22.47-.42.9-.59,1.28-.34.75-.55,1.25-.55,1.25,0,0,.2-.51.52-1.27.16-.38.35-.82.55-1.29.1-.24.21-.48.32-.72.11-.25.23-.49.35-.74.12-.25.25-.49.38-.73.13-.24.27-.47.4-.69.26-.44.51-.85.73-1.21.34-.56.6-.97.69-1.11-.07-.16-.13-.31-.2-.47.11.28-.57,1.08-.71,1.32-.33.58-.65,1.17-.95,1.76-.59,1.17-1.13,2.37-1.65,3.57-.13.29-1.29,3.36-.78,3.36.21,0,.3-.41.37-.56.22-.44.48-.89.73-1.29.55-.89,1.08-1.78,1.61-2.67.52-.89,1.06-1.76,1.56-2.65.26-.46.61-.83.43-1.34-.06-.16-.12-.33-.19-.49Z"/>
  </g>
</svg>