<?xml version="1.0" encoding="UTF-8"?>
<svg id="Layer_1" data-name="Layer 1" xmlns="http://www.w3.org/2000/svg" xmlns:xlink="http://www.w3.org/1999/xlink" viewBox="0 0 39 21">
  <defs>
    <style>
      .cls-1 {
        clip-path: url(#clippath-2);
      }

      .cls-2 {
        clip-path: url(#clippath-1);
      }

      .cls-3, .cls-4 {
        fill: #f3b040;
      }

      .cls-4 {
        font-family: InfiniteStroke-Condensed, 'InfiniteStroke Condensed';
        font-size: 3.99px;
      }

      .cls-5 {
        clip-path: url(#clippath);
      }

      .cls-6 {
        fill: none;
      }
    </style>
    <clipPath id="clippath">
      <rect class="cls-6" x="-16" y="-53" width="71.4" height="127"/>
    </clipPath>
    <clipPath id="clippath-1">
      <rect class="cls-6" x="-16" y="-53" width="71.4" height="127"/>
    </clipPath>
    <clipPath id="clippath-2">
      <rect class="cls-6" x="-16" y="-53" width="71.4" height="127"/>
    </clipPath>
  </defs>
  <g class="cls-5">
    <g class="cls-2">
      <path class="cls-3" d="m4.31,5.46l.54-.52c-.93-.11-1.48-.04-1.65.23-.03-.07-.02-.17,0-.28.07-.22.24-.41.53-.58.49-.28,1.17-.36,2.05-.24,1.65.23,2.82.26,3.51.09-.3.3-.63.54-1,.72v7.32c-.04.57-.15.95-.31,1.15-.14.17-.4.27-.79.3h-3.42c.27-.14.45-.31.53-.51v-5.26c-.13-.26-.32-.5-.58-.71.26-.21.45-.44.58-.7v-1Zm2.8-.34c-.51,0-1.05-.03-1.62-.1v7.77h1.34c.19,0,.28-.07.27-.22v-7.46Z"/>
      <path class="cls-3" d="m9.98,5.45l.54-.52c-.93-.11-1.48-.04-1.65.23-.03-.08-.02-.17,0-.28.07-.22.24-.41.54-.58.54-.31,1.36-.37,2.45-.17,1.1.2,2.03.21,2.77.03-.22.21-.47.41-.76.59v1.63c.13.3.33.57.62.8-.28.23-.49.49-.62.79v5.17c.09.23.27.4.53.52h-2.24c.27-.14.45-.31.53-.51v-2.91c-.19.18-.42.33-.68.44.1-.11.15-.24.15-.38,0-.28-.26-.49-.75-.61-.08-.02-.15-.04-.24-.05v3.5c.09.23.27.4.53.52h-2.24c.27-.14.45-.31.53-.51v-3.36c-.41.13-.76.3-1.05.52.18-.44.53-.79,1.05-1.05v-1.37c-.13-.26-.32-.49-.58-.7.26-.21.45-.45.58-.71v-1Zm2.72-.34c-.34.02-.85-.01-1.53-.09v3.87c.69-.09,1.2,0,1.53.26v-4.03Z"/>
      <path class="cls-3" d="m15.35,5.46l.44-.42s-.09-.02-.15-.03c-.38-.07-.59-.11-.64-.11-.36-.02-.58.07-.66.27-.02-.08-.02-.17,0-.28.04-.22.15-.41.33-.58.34-.31.84-.37,1.51-.17.68.2,1.25.21,1.71.03-.3.48-.6.78-.91.9-.12.05-.27.07-.44.07v8c.09.23.27.4.53.52h-2.24c.27-.14.45-.31.53-.51v-5.26c-.13-.26-.32-.5-.58-.71.26-.21.45-.44.58-.7v-1Z"/>
      <path class="cls-3" d="m21.8,5.43h0s.43-.36.43-.36c-.14-.01-.34-.05-.61-.1-.38-.07-.59-.11-.64-.11-.37-.02-.59.07-.67.27-.07-.31.04-.6.33-.87.34-.31.84-.37,1.51-.17.68.2,1.25.21,1.71.02-.29.46-.58.76-.89.89v1.38c.13.28.33.53.6.75-.27.22-.47.47-.6.75v5.22c.08.2.26.38.53.52h-2.25c.26-.11.44-.29.53-.52v-5.95l-1.04,2.73-.38.97-.37-.97-1.07-2.79v6.01c.09.23.27.4.53.52h-2.25c.27-.14.45-.31.53-.52v-5.28c-.12-.26-.32-.49-.58-.7.26-.21.45-.45.58-.71v-1.01l1.19-1.14v.87l1.44,3.77,1.29-3.38.13-.11Z"/>
      <path class="cls-3" d="m24.41,6.49v-1.59c-.45.01-.72.11-.83.28-.03-.08-.02-.17,0-.28.07-.23.24-.42.53-.58.54-.31,1.36-.37,2.45-.17,1.1.2,2.02.21,2.77.03-.26.26-.56.48-.89.66v1.66c.12.25.31.48.57.69-.25.2-.44.43-.56.68v4.4c-.04.46-.13.79-.28.98-.15.19-.42.33-.81.4h0s-1.84,0-1.84,0h0c-.38-.08-.65-.22-.81-.41-.15-.19-.25-.52-.28-.98v-4.4c-.12-.24-.31-.47-.56-.67.25-.2.44-.43.56-.68m1.56,6.3h.9s.4,0,.4,0l-.02-5.28v-2.39c-.33,0-.85-.03-1.56-.11-.02,0-.05,0-.11-.01v2.52h0v5.28s.39,0,.39,0h0Z"/>
      <path class="cls-3" d="m32.8,5.77v-.32l.46-.38c-.11-.02-.26-.04-.46-.08-.38-.08-.59-.11-.64-.11-.37-.02-.59.07-.67.27-.07-.32.04-.61.33-.87.34-.31.84-.36,1.52-.17.68.19,1.24.2,1.71.02-.3.48-.6.78-.91.9-.05.02-.1.03-.15.05v1.38c.12.26.32.49.58.7-.26.21-.45.45-.58.71v5.26h0c.09.21.26.38.53.52h-2.24c.26-.11.44-.29.53-.52v-.56l-2.08-5.44v6c.1.23.28.4.54.52h-2.25c.27-.14.45-.31.53-.51v-5.27c-.12-.26-.32-.5-.58-.71.26-.21.45-.44.58-.7v-1l1.19-1.14v.87l2.08,5.44v-4.84Z"/>
    </g>
    <text class="cls-4" transform="translate(27.12 17.21)"><tspan x="0" y="0">Hair</tspan></text>
    <rect class="cls-3" x="18.55" y="17.99" width="1.29" height="1.29" transform="translate(-7.56 19.03) rotate(-45)"/>
    <line class="cls-3" x1="3.16" y1="18.77" x2="35.13" y2="18.58"/>
    <g class="cls-1">
      <path class="cls-3" d="m3.16,18.77c2.66-.15,5.33-.24,7.99-.3,1.33-.04,2.66-.05,4-.08l4-.04h4c1.33,0,2.66,0,4,.02,2.66.03,5.33.09,7.99.21-2.66.15-5.33.24-7.99.3-1.33.04-2.66.05-4,.08l-4,.04h-4c-1.33,0-2.66,0-4-.03-2.66-.03-5.33-.09-7.99-.21"/>
    </g>
  </g>
</svg>